<svg width="59" height="41" viewBox="0 0 59 41" xmlns="http://www.w3.org/2000/svg" xmlns:xlink="http://www.w3.org/1999/xlink"><title>Page 1</title><defs><path id="a" d="M58.266.542H0v30.539h58.266V.542z"/></defs><g fill="none" fill-rule="evenodd"><path d="M38.96 39.458a3.286 3.286 0 0 1-3.281-3.283 3.286 3.286 0 0 1 3.282-3.283 3.287 3.287 0 0 1 3.285 3.283 3.287 3.287 0 0 1-3.285 3.283m0-7.566a4.287 4.287 0 0 0-4.282 4.283 4.288 4.288 0 0 0 4.282 4.283 4.29 4.29 0 0 0 4.285-4.283 4.288 4.288 0 0 0-4.285-4.283m-13.837 7.566a3.287 3.287 0 0 1-3.283-3.283 3.286 3.286 0 0 1 3.283-3.283 3.286 3.286 0 0 1 3.283 3.283 3.286 3.286 0 0 1-3.283 3.283m0-7.566a4.288 4.288 0 0 0-4.283 4.283 4.289 4.289 0 0 0 4.283 4.283 4.289 4.289 0 0 0 4.283-4.283 4.288 4.288 0 0 0-4.283-4.283" fill="#939597"/><g transform="translate(0 -.542)"><mask id="b" fill="#fff"><use xlink:href="#a"/></mask><path d="M57.23 14.889l-1.699.33a.503.503 0 0 0-.387.359 9.666 9.666 0 0 1-.928 2.24.5.5 0 0 0 .021.527l1.03 1.424-2.71 2.66-1.43-.966a.498.498 0 0 0-.53-.02 9.677 9.677 0 0 1-2.247.936.501.501 0 0 0-.358.388l-.325 1.724-1.923-.018-1.07-.01-.755-.007-.325-1.68a.501.501 0 0 0-.36-.388 9.631 9.631 0 0 1-2.262-.936.494.494 0 0 0-.528.021l-1.403 1.018-2.125-2.163-.538-.546.307-.454.648-.96a.5.5 0 0 0 .02-.528 9.693 9.693 0 0 1-.943-2.267.5.5 0 0 0-.388-.361l-1.705-.271.003-.254.01-1 .023-2.543 1.67-.324a.504.504 0 0 0 .387-.36 9.65 9.65 0 0 1 .942-2.266.502.502 0 0 0-.019-.53l-1.015-1.4 2.711-2.661 1.416.956a.495.495 0 0 0 .526.02 9.74 9.74 0 0 1 2.263-.933c.183-.05.324-.2.36-.388l.273-1.716 3.798.034.327 1.69a.503.503 0 0 0 .358.388 9.716 9.716 0 0 1 2.248.935.5.5 0 0 0 .528-.02l1.418-1.027 2.662 2.709-.969 1.434a.5.5 0 0 0-.02.527c.402.709.714 1.463.927 2.243a.5.5 0 0 0 .388.36l1.734.278-.036 3.796zm.204-4.728h-.014l-1.398-.27c-.2-.655-.464-1.292-.787-1.9l.74-1.107a.935.935 0 0 0-.002-1.326l-2.72-2.722c-.353-.354-1.046-.297-1.257-.061l-1.176.794a10.774 10.774 0 0 0-1.906-.793l-.258-1.294a.942.942 0 0 0-.94-.94h-3.849c-.518 0-.939.422-.93.845l-.267 1.38a10.6 10.6 0 0 0-1.92.794l-1.089-.727c-.357-.354-.979-.35-1.327 0l-2.72 2.722a.926.926 0 0 0-.279.664c0 .252.098.488.215.592l.783 1.158a10.635 10.635 0 0 0-.802 1.928l-1.274.255a.941.941 0 0 0-.94.94v2.594H17.303a.5.5 0 1 0 0 1h16.014v.254c0 .512.413.93.832.93h.014l1.37.265c.201.665.47 1.312.801 1.929l-.723 1.083c-.053.052-.083.119-.12.18H19.875a.5.5 0 1 0 0 1H35.51c.034.05.057.105.1.148l2.72 2.719c.352.357 1.045.298 1.257.063l1.163-.785c.615.327 1.26.594 1.921.794l.245 1.224h-21.37a.5.5 0 1 0 0 1h22.721l-1.809 4.59H20.686l-8.57-23.258c-.002-.003-.005-.005-.006-.01-.017-.04-.043-.074-.068-.11-.013-.016-.022-.038-.038-.053-.026-.03-.059-.046-.09-.067-.023-.014-.04-.033-.066-.043-.027-.012-.057-.014-.086-.021-.035-.01-.068-.021-.104-.022l-.012-.002H.5a.5.5 0 1 0 0 1h10.797l8.572 23.259c.001.003.004.004.005.006a.484.484 0 0 0 .163.21c.015.013.031.023.047.033a.51.51 0 0 0 .253.078h22.461a.491.491 0 0 0 .25-.076.514.514 0 0 0 .213-.237l.002-.003 2.08-5.274h2.372c.52 0 .941-.422.932-.845l.27-1.39a10.698 10.698 0 0 0 1.905-.794l1.101.736a.937.937 0 0 0 1.328 0l2.721-2.721c.365-.363.367-.96.062-1.255l-.798-1.183c.322-.606.586-1.242.786-1.898l1.304-.261c.518 0 .94-.422.94-.94v-3.847c0-.513-.413-.932-.832-.932z" fill="#939597" mask="url(#b)"/></g><path d="M45.792 18.074c-2.612 0-4.806-1.8-5.421-4.225a5.603 5.603 0 0 1-.178-1.375 5.606 5.606 0 0 1 5.599-5.599c3.087 0 5.6 2.513 5.6 5.6 0 3.086-2.513 5.6-5.6 5.6m0-12.023a6.43 6.43 0 0 0-6.422 6.422c0 .187.012.37.028.552.024.28.065.555.123.823a6.432 6.432 0 0 0 2.513 3.823c.217.157.441.305.677.435a6.38 6.38 0 0 0 3.081.79 6.43 6.43 0 0 0 6.423-6.423 6.43 6.43 0 0 0-6.423-6.422" fill="#939597"/></g></svg>