<svg width="158" height="107" viewBox="0 0 158 107" xmlns="http://www.w3.org/2000/svg" xmlns:xlink="http://www.w3.org/1999/xlink"><title>Page 1</title><defs><path id="a" d="M109.286 77.441V.805H.483v76.636h108.803z"/></defs><g fill="none" fill-rule="evenodd"><path d="M112.48 103.195c-5.192 0-9.417-4.224-9.417-9.415 0-5.192 4.225-9.417 9.416-9.417 5.191 0 9.416 4.225 9.416 9.417 0 5.191-4.225 9.415-9.416 9.415m0-21.832c-6.846 0-12.416 5.57-12.416 12.417 0 6.846 5.57 12.415 12.416 12.415s12.416-5.569 12.416-12.415c0-6.847-5.57-12.417-12.416-12.417M72.55 103.195c-5.191 0-9.416-4.224-9.416-9.415 0-5.192 4.225-9.417 9.416-9.417 5.192 0 9.416 4.225 9.416 9.417 0 5.191-4.224 9.415-9.416 9.415m0-21.832c-6.846 0-12.416 5.57-12.416 12.417 0 6.846 5.57 12.415 12.416 12.415 6.847 0 12.416-5.569 12.416-12.415 0-6.847-5.57-12.417-12.416-12.417" fill="#999B9E"/><path d="M72.55 98.261a4.488 4.488 0 0 1-4.482-4.482 4.488 4.488 0 0 1 4.482-4.483 4.487 4.487 0 0 1 4.482 4.483 4.487 4.487 0 0 1-4.482 4.482m0-11.965c-4.125 0-7.482 3.357-7.482 7.483 0 4.126 3.357 7.482 7.482 7.482 4.126 0 7.482-3.356 7.482-7.482s-3.356-7.483-7.482-7.483m39.93 11.965a4.487 4.487 0 0 1-4.483-4.482 4.487 4.487 0 0 1 4.482-4.483 4.488 4.488 0 0 1 4.482 4.483 4.488 4.488 0 0 1-4.482 4.482m0-11.965c-4.126 0-7.482 3.357-7.482 7.483 0 4.126 3.356 7.482 7.482 7.482 4.125 0 7.482-3.356 7.482-7.482s-3.357-7.483-7.482-7.483" fill="#EC2A78"/><path d="M115.97 24.768h2.695c.723 0 1.295.145 1.717.436.424.29.635.736.635 1.334v.053c0 .251-.05.474-.133.676-.104.252-.267.47-.502.645-.422.318-1.004.476-1.743.476h-2.67v-3.62zm10.226 4.81c.652-.934.978-2.08.978-3.436v-.053c0-.95-.142-1.779-.423-2.484a5.664 5.664 0 0 0-1.268-1.903c-.652-.65-1.511-1.166-2.577-1.545s-2.426-.569-4.083-.569h-9.037v18.498h6.184v-5.285h1.32l3.489 5.285h7.056l-4.307-6.289c1.126-.546 2.016-1.286 2.668-2.22zm13.952 3.144c0 .282-.128.511-.383.687-.256.176-.692.282-1.307.317v-2.14c.668.123 1.117.264 1.347.422a.76.76 0 0 1 .343.661v.053zm-4.122-6.633c-.688-.123-1.154-.268-1.4-.435-.248-.168-.37-.393-.37-.674v-.054c0-.264.131-.488.396-.674.265-.184.722-.286 1.374-.303v2.14zm8.945 3.792a4.477 4.477 0 0 0-1.347-1.638c-.59-.45-1.313-.824-2.168-1.124a20.752 20.752 0 0 0-2.946-.765v-2.167a12.8 12.8 0 0 1 1.982.607c.67.265 1.286.6 1.85 1.004l2.536-4.016a14.455 14.455 0 0 0-2.84-1.4c-1.014-.37-2.137-.617-3.369-.74v-1.586h-2.749v1.506c-1.18.053-2.215.238-3.105.556-.89.316-1.629.735-2.22 1.254a4.92 4.92 0 0 0-1.32 1.837 5.892 5.892 0 0 0-.437 2.273v.053c0 .863.155 1.607.463 2.232a4.566 4.566 0 0 0 1.361 1.625c.598.46 1.342.842 2.233 1.15a23.09 23.09 0 0 0 3.078.806v2.193a12.29 12.29 0 0 1-2.642-.714c-.916-.35-1.868-.845-2.854-1.479l-2.695 3.99a14.843 14.843 0 0 0 3.752 1.85c1.374.458 2.801.75 4.281.872v2.616h2.748v-2.59c1.04-.07 1.981-.255 2.827-.554.846-.3 1.568-.692 2.167-1.176a4.979 4.979 0 0 0 1.387-1.758c.326-.687.49-1.47.49-2.352v-.052c0-.899-.155-1.669-.463-2.313z" fill="#EC2978"/><path d="M124.388 77.322l-.003.001.003-.001m.349-.337a.965.965 0 0 1-.059.071c.022-.023.04-.047.06-.07m-.707.504a.84.84 0 0 1-.085.027c.03-.009.057-.017.085-.027" fill="#999B9E"/><path d="M124.1 74.683l-.548 1.393h-1.497a1.497 1.497 0 0 0 1.496 1.5c.135 0 .269-.024.395-.059.03-.008.056-.018.085-.027a1.41 1.41 0 0 0 .353-.167h.004a1.497 1.497 0 0 0 .35-.338c.08-.106.151-.22.204-.349a1.496 1.496 0 0 0-.842-1.953" fill="#999B9E"/><path d="M122.056 76.076h1.496l.549-1.393a1.491 1.491 0 0 0-.55-.107h-1.02l-.373.95a1.455 1.455 0 0 0-.102.55" fill="#999B9E"/><g transform="translate(48 -.805)"><mask id="b" fill="#fff"><use xlink:href="#a"/></mask><path d="M80.063 56.248c-7.82 0-14.848-3.446-19.656-8.895-.428-.485-.84-.984-1.233-1.5a26.22 26.22 0 0 1-1.055-1.5 26.044 26.044 0 0 1-4.25-13.28 25.893 25.893 0 0 1-.027-1.047c0-.152.008-.302.012-.454.008-.504.031-1.004.068-1.5C54.926 14.523 66.263 3.805 80.063 3.805c14.46 0 26.223 11.762 26.223 26.221 0 14.46-11.764 26.222-26.223 26.222m0-55.443c-15.455 0-28.139 12.062-29.148 27.267H1.983a1.5 1.5 0 0 0 0 3h48.885a29.016 29.016 0 0 0 3.742 13.281H9.405a1.5 1.5 0 1 0 0 3h47.146c5.326 7.21 13.881 11.895 23.512 11.895H14.234a1.5 1.5 0 1 0 0 3h65.472l-5.175 13.133h1.02c.196 0 .38.04.55.107a1.496 1.496 0 0 1 .841 1.953c.001-.004.004-.006.006-.01l7.283-18.485c14.144-2.029 25.055-14.22 25.055-28.92 0-16.113-13.11-29.22-29.223-29.22" fill="#999B9E" mask="url(#b)"/></g><path d="M35.071 7.503c-.004-.011-.01-.02-.016-.03-.02-.053-.046-.101-.072-.151-.02-.038-.039-.078-.063-.115-.028-.042-.06-.08-.09-.118-.03-.037-.059-.076-.092-.11-.033-.035-.07-.064-.106-.094-.037-.031-.073-.065-.112-.092-.04-.028-.084-.05-.127-.074-.04-.023-.08-.048-.125-.068-.04-.018-.086-.03-.129-.045-.048-.016-.097-.035-.148-.046-.039-.01-.08-.012-.119-.017a1.358 1.358 0 0 0-.18-.02l-.029-.001H1.5a1.5 1.5 0 1 0 0 3h31.117l24.715 67.073c.003.008.01.013.013.02.05.13.117.248.197.356.017.023.038.047.057.07.083.098.175.188.28.26l.016.014a1.498 1.498 0 0 0 .444.2c.13.036.263.06.4.06h64.813a1.498 1.498 0 0 1-1.497-1.5c0-.182.03-.368.102-.55l.374-.95H59.786L35.071 7.504z" fill="#999B9E"/></g></svg>