<svg width="47" height="35" viewBox="0 0 47 35" xmlns="http://www.w3.org/2000/svg" xmlns:xlink="http://www.w3.org/1999/xlink"><title>Page 1</title><defs><path id="a" d="M0 34.172h45.184V0H0z"/></defs><g transform="translate(1)" fill="none" fill-rule="evenodd"><path d="M35.257 30.818a.679.679 0 0 1-.675.676H1.176a.678.678 0 0 1-.676-.676V1.175C.5.802.803.5 1.176.5h33.406c.37 0 .675.302.675.675v29.643z" fill="#FEFEFE"/><path d="M35.257 30.818a.679.679 0 0 1-.675.676H1.176a.678.678 0 0 1-.676-.676V1.175C.5.802.803.5 1.176.5h33.406c.37 0 .675.302.675.675v29.643z" stroke="#939597"/><path d="M3.968 3.152a.482.482 0 1 1-.964 0 .482.482 0 0 1 .964 0" fill="#FEFEFE"/><path d="M3.968 3.152a.482.482 0 1 1-.964 0 .482.482 0 0 1 .964 0z" stroke="#939597"/><path d="M6.565 3.152a.482.482 0 1 1-.964 0 .482.482 0 0 1 .964 0" fill="#FEFEFE"/><path d="M6.565 3.152a.482.482 0 1 1-.964 0 .482.482 0 0 1 .964 0z" stroke="#939597"/><path d="M9.14 3.152a.482.482 0 1 1-.965 0 .482.482 0 0 1 .966 0" fill="#FEFEFE"/><path d="M9.14 3.152a.482.482 0 1 1-.965 0 .482.482 0 0 1 .966 0z" stroke="#939597"/><mask id="b" fill="#fff"><use xlink:href="#a"/></mask><path stroke="#939597" stroke-linecap="round" stroke-linejoin="round" mask="url(#b)" d="M4.061 17.908h27.707V8.68H4.061z"/><path d="M.5 5.623h34.757" stroke="#939597" mask="url(#b)"/><path d="M4.06 22.344h27.707M4.06 26.635h27.707" stroke="#939597" stroke-linecap="round" mask="url(#b)"/><path d="M25.828 17.248a2.434 2.434 0 0 1 2.433-2.432h13.99a2.433 2.433 0 0 1 2.432 2.432v13.99a2.433 2.433 0 0 1-2.432 2.434h-13.99a2.434 2.434 0 0 1-2.433-2.434v-13.99z" fill="#FEFEFE" mask="url(#b)"/><path d="M25.828 17.248a2.434 2.434 0 0 1 2.433-2.432h13.99a2.433 2.433 0 0 1 2.432 2.432v13.99a2.433 2.433 0 0 1-2.432 2.434h-13.99a2.434 2.434 0 0 1-2.433-2.434v-13.99z" stroke="#939597" stroke-linecap="round" mask="url(#b)"/><g mask="url(#b)"><path d="M30.39 19.43v9.629" fill="#FEFEFE"/><path d="M30.39 19.43v9.629" stroke="#939597" stroke-linecap="round"/></g><g mask="url(#b)"><path d="M35.257 19.43v9.629" fill="#FEFEFE"/><path d="M35.257 19.43v9.629" stroke="#939597" stroke-linecap="round"/></g><g mask="url(#b)"><path d="M40.122 19.43v9.629" fill="#FEFEFE"/><path d="M40.122 19.43v9.629" stroke="#939597" stroke-linecap="round"/></g><path d="M31.911 20.517a1.547 1.547 0 1 1-3.094 0 1.547 1.547 0 0 1 3.094 0" fill="#FEFEFE" mask="url(#b)"/><path d="M31.911 20.517a1.547 1.547 0 1 1-3.094 0 1.547 1.547 0 0 1 3.094 0z" stroke="#939597" stroke-linecap="round" mask="url(#b)"/><path d="M36.803 25.45a1.546 1.546 0 1 1-3.092.001 1.546 1.546 0 0 1 3.092-.002" fill="#FEFEFE" mask="url(#b)"/><path d="M36.803 25.45a1.546 1.546 0 1 1-3.092.001 1.546 1.546 0 0 1 3.092-.002z" stroke="#939597" stroke-linecap="round" mask="url(#b)"/><path d="M41.667 22.965a1.546 1.546 0 1 1-3.092.002 1.546 1.546 0 0 1 3.092-.002" fill="#FEFEFE" mask="url(#b)"/><path d="M41.667 22.965a1.546 1.546 0 1 1-3.092.002 1.546 1.546 0 0 1 3.092-.002z" stroke="#939597" stroke-linecap="round" mask="url(#b)"/></g></svg>