<svg width="30" height="35" viewBox="0 0 30 35" xmlns="http://www.w3.org/2000/svg" xmlns:xlink="http://www.w3.org/1999/xlink"><title>Page 1</title><defs><path id="a" d="M14.583 14H0V.377h29.166V14z"/><path id="c" d="M20.678.271H.501v21.843h20.177V.271z"/></defs><g fill="none" fill-rule="evenodd"><g transform="translate(0 20.73)"><mask id="b" fill="#fff"><use xlink:href="#a"/></mask><path d="M1.01 13c.21-5.104 3.632-9.657 8.67-11.506l2.523 1.832 2.425 5.768 1.959-5.654 2.889-1.95c5.045 1.846 8.469 6.403 8.68 11.51H1.01zM19.57.462L19.333.38 15.75 2.798l-1.213 3.501-1.52-3.617L9.844.377l-.246.085C3.857 2.448 0 7.688 0 13.5v.5h29.166v-.5c0-5.812-3.856-11.052-9.597-13.038z" fill="#939597" mask="url(#b)"/></g><g transform="translate(4 -.27)"><mask id="d" fill="#fff"><use xlink:href="#c"/></mask><path d="M10.74 3.745c.328 0 .65.023.956.07 1.094.163 2.724 1.202 2.895 1.501l.16.277h.307c.056 0 .56.013.968.484.553.64.861 1.601.94 2.894.026.473.023.991-.01 1.556-.006.076-.007.147-.013.224-.3-.65-.8-1.434-1.157-1.967l-.206-.305-.235-.339-.377.166c-.034.014-3.402 1.472-6.776 1.507-.306 0-.669-.042-1.035-.084a11.227 11.227 0 0 0-1.18-.09c-.485 0-.824.085-1.065.267-.008.006-.019.01-.027.017a2.587 2.587 0 0 0-.724.945c0-.038.002-.085.001-.125-.009-.464.006-.999.08-1.595.02-.168.056-.323.086-.48.748-3.865 4.331-4.923 6.411-4.923m.63 15.035a.414.414 0 0 1-.826 0 .413.413 0 0 1 .826 0m.931-.412a1.408 1.408 0 0 0-2.757.412 1.411 1.411 0 1 0 2.696.585 7.656 7.656 0 0 0 2.174.03c-1.057 1.077-2.387 1.72-3.83 1.72-3.18 0-5.827-3.092-6.156-7.19l-.016-.216-.17-.136c-.107-.084-.2-.292-.227-.552l.83-.012-.02-.512c0-.013-.038-1.214.686-1.793.003-.003.094-.066.467-.066.321 0 .696.043 1.068.086.405.045.806.09 1.185.09h.002c2.907-.032 5.737-1.035 6.75-1.433.602.906 1.186 1.925 1.21 2.2.024.458.078.676.088.715l.098.367.765.007c.017.076.028.158.028.247 0 .318-.124.56-.246.656l-.17.136-.017.216c-.13 1.633-.634 3.1-1.388 4.281a6.483 6.483 0 0 1-3.05.162m-10.298-2.53a.5.5 0 0 0 0-1c-.277 0-.5-.27-.5-.603 0-.333.223-.604.5-.604a.489.489 0 0 0 .397-.21.49.49 0 0 0 .12-.42c-.01-.059-1.09-5.79 1.712-9.19 1.388-1.686 3.526-2.54 6.352-2.54 2.678 0 4.732.824 6.105 2.451 2.875 3.405 1.918 9.266 1.907 9.325a.502.502 0 0 0 .495.584c.016 0 .03-.007.046-.008.014.001.027.008.041.008.277 0 .501.271.501.604 0 .332-.224.603-.5.603a.5.5 0 0 0-.344.86c-.632.823-1.31 1.413-1.988 1.828.45-1.003.755-2.124.872-3.33.287-.319.453-.78.453-1.279 0-.419-.125-.812-.334-1.115.372-3.072.04-5.115-1.055-6.379a2.38 2.38 0 0 0-1.478-.809c-.625-.703-2.358-1.624-3.459-1.787-3.37-.517-7.999 1.377-8.595 6.198a11.77 11.77 0 0 0-.008 2.92 2.029 2.029 0 0 0-.247.972c0 .5.166.96.453 1.278.437 4.53 3.478 7.92 7.135 7.92 2.16 0 4.1-1.19 5.422-3.094 1.492-.527 3.114-1.642 4.411-3.882l.011-.02c.012-.02.024-.036.035-.056.006-.01.006-.02.01-.032a1.67 1.67 0 0 0 .206-.796c0-.708-.433-1.302-1.029-1.515.184-1.554.505-6.44-2.193-9.64C15.884 1.216 13.571.27 10.583.27c-3.142 0-5.539.98-7.127 2.91-2.656 3.225-2.205 8.073-1.99 9.56-.563.231-.965.812-.965 1.494 0 .884.674 1.603 1.501 1.603" fill="#939597" mask="url(#d)"/></g></g></svg>