<?xml version="1.0" encoding="UTF-8" standalone="no"?>
<svg width="136px" height="142px" viewBox="0 0 136 142" version="1.1" xmlns="http://www.w3.org/2000/svg" xmlns:xlink="http://www.w3.org/1999/xlink">
    <!-- Generator: Sketch 39 (31667) - http://www.bohemiancoding.com/sketch -->
    <title>Page 1</title>
    <desc>Created with Sketch.</desc>
    <defs>
        <polygon id="path-1" points="115.4136 0.993 0 0.993 0 121.6037 115.4136 121.6037 115.4136 0.993"></polygon>
        <polygon id="path-3" points="87.138 92.2046 87.138 0.8166 0.8522 0.8166 0.8522 92.2046 87.138 92.2046"></polygon>
    </defs>
    <g id="Page-1" stroke="none" stroke-width="1" fill="none" fill-rule="evenodd">
        <g transform="translate(0.000000, -1.000000)">
            <g id="Group-3" transform="translate(0.000000, 0.007000)">
                <mask id="mask-2" fill="white">
                    <use xlink:href="#path-1"></use>
                </mask>
                <g id="Clip-2"></g>
                <path d="M60.3056,0.9927 C27.0536,0.9927 -0.0004,28.0467 -0.0004,61.2987 C-0.0004,94.5517 27.0536,121.6037 60.3056,121.6037 C62.8596,121.6037 65.3706,121.4257 67.8416,121.1157 C67.3666,120.9347 67.0226,120.4887 66.9986,119.9517 C66.9976,119.9397 66.9616,119.5157 66.7376,118.6147 C64.6246,118.8497 62.4806,118.9817 60.3056,118.9817 C28.4986,118.9817 2.6216,93.1057 2.6216,61.2987 C2.6216,29.4917 28.4986,3.6147 60.3056,3.6147 C82.4476,3.6147 101.7026,16.1607 111.3686,34.5117 C112.7616,35.2197 114.1106,36.0007 115.4136,36.8497 C106.0136,15.7487 84.8566,0.9927 60.3056,0.9927" id="Fill-1" fill="#9A9C9F" mask="url(#mask-2)"></path>
            </g>
            <path d="M60.3056,15.0637 C34.8086,15.0637 14.0636,35.8087 14.0636,61.3057 C14.0636,86.8037 34.8086,107.5467 60.3056,107.5467 C60.9456,107.5467 61.5806,107.5237 62.2146,107.4987 C61.8036,106.6817 61.3556,105.8197 60.8696,104.9107 C60.6816,104.9127 60.4946,104.9247 60.3056,104.9247 C36.2536,104.9247 16.6856,85.3577 16.6856,61.3057 C16.6856,37.2537 36.2536,17.6857 60.3056,17.6857 C72.0146,17.6857 82.6526,22.3317 90.4966,29.8677 C90.8766,29.8517 91.2576,29.8427 91.6416,29.8387 C91.6876,29.8327 91.7346,29.8237 91.7836,29.8237 C91.8546,29.8237 91.9246,29.8287 91.9956,29.8297 C92.0666,29.8287 92.1366,29.8237 92.2076,29.8237 C92.2566,29.8237 92.3036,29.8327 92.3506,29.8387 C92.9696,29.8467 93.5876,29.8607 94.2006,29.8947 C85.7496,20.7817 73.6846,15.0637 60.3056,15.0637" id="Fill-4" fill="#9A9C9F"></path>
            <path d="M30.5791,61.3059 C30.5791,75.1189 40.0491,86.7609 52.8381,90.0819 C52.3781,89.0109 51.9591,87.9669 51.5991,86.9679 C40.9131,83.3319 33.2011,73.2059 33.2011,61.3059 C33.2011,46.3609 45.3601,34.2009 60.3061,34.2009 C63.7061,34.2009 66.9581,34.8359 69.9601,35.9849 C70.9131,35.4129 71.8911,34.8809 72.8881,34.3829 C69.0651,32.5879 64.8021,31.5789 60.3061,31.5789 C43.9141,31.5789 30.5791,44.9149 30.5791,61.3059" id="Fill-6" fill="#9A9C9F"></path>
            <g id="Group-10" transform="translate(48.000000, 29.007000)">
                <mask id="mask-4" fill="white">
                    <use xlink:href="#path-3"></use>
                </mask>
                <g id="Clip-9"></g>
                <path d="M77.0742,67.1856 C69.2042,80.2496 67.1192,87.0066 66.5692,89.5826 L44.6082,89.5826 L43.3832,89.5826 L31.1202,89.5826 L21.4222,89.5826 C21.4012,89.4876 21.3742,89.3746 21.3492,89.2676 C20.9302,87.4576 19.8392,83.9736 17.0472,78.2976 C16.6522,77.4946 16.2322,76.6606 15.7652,75.7686 C14.4612,73.2726 12.8682,70.4236 10.9172,67.1856 C9.8032,65.3366 8.8412,63.5036 8.0052,61.7106 C7.5512,60.7366 7.1292,59.7736 6.7522,58.8296 C4.3972,52.9466 3.4742,47.7106 3.4742,44.1736 C3.4742,28.6916 12.1562,15.2026 24.9052,8.3116 C25.8362,7.8096 26.7932,7.3486 27.7652,6.9176 C32.7362,4.7146 38.2232,3.4736 43.9952,3.4446 C44.3322,3.4456 44.6662,3.4596 45.0002,3.4696 C46.2242,3.5056 47.4362,3.5946 48.6312,3.7376 C54.7122,4.4616 60.3842,6.5286 65.3442,9.6366 C66.6912,10.4796 67.9832,11.4006 69.2192,12.3906 C78.5352,19.8626 84.5162,31.3296 84.5162,44.1736 C84.5162,49.3246 82.5612,58.0756 77.0742,67.1856 M67.4132,7.8506 C66.1112,7.0006 64.7612,6.2206 63.3682,5.5116 C58.1592,2.8616 52.3512,1.2286 46.2002,0.8876 C45.5882,0.8536 44.9692,0.8396 44.3502,0.8316 C44.3032,0.8256 44.2562,0.8166 44.2072,0.8166 C44.1362,0.8166 44.0672,0.8216 43.9952,0.8226 C43.9242,0.8216 43.8542,0.8166 43.7842,0.8166 C43.7352,0.8166 43.6882,0.8256 43.6412,0.8316 C43.2582,0.8356 42.8762,0.8456 42.4962,0.8606 C36.1902,1.1066 30.2292,2.7056 24.8882,5.3756 C23.8912,5.8746 22.9132,6.4056 21.9602,6.9786 C9.3272,14.5626 0.8522,28.3946 0.8522,44.1736 C0.8522,45.9986 1.1192,51.0836 3.5992,57.9606 C3.9592,58.9596 4.3782,60.0036 4.8382,61.0746 C5.8462,63.4216 7.0922,65.9186 8.6702,68.5386 C10.3212,71.2786 11.7032,73.7226 12.8692,75.9036 C13.3552,76.8126 13.8032,77.6746 14.2152,78.4916 C17.1682,84.3456 18.3052,87.8766 18.7382,89.6146 C18.9612,90.5166 18.9982,90.9396 18.9982,90.9516 C19.0222,91.4886 19.3662,91.9356 19.8412,92.1156 C19.9872,92.1716 20.1432,92.2046 20.3082,92.2046 L43.3832,92.2046 L44.6082,92.2046 L67.6832,92.2046 C68.3732,92.2046 68.9462,91.6556 68.9922,90.9656 C68.9952,90.9066 69.4972,84.8426 79.3212,68.5386 C86.5742,56.4946 87.1382,46.8436 87.1382,44.1736 C87.1382,28.9796 79.2762,15.5946 67.4132,7.8506" id="Fill-8" fill="#EC2978" mask="url(#mask-4)"></path>
            </g>
            <path d="M113.2436,125.1198 L69.5216,125.1198 C68.7976,125.1198 68.2106,125.7068 68.2106,126.4308 C68.2106,127.1548 68.7976,127.7418 69.5216,127.7418 L113.2436,127.7418 C113.9676,127.7418 114.5546,127.1548 114.5546,126.4308 C114.5546,125.7068 113.9676,125.1198 113.2436,125.1198" id="Fill-11" fill="#EC2978"></path>
            <path d="M109.2255,132.2517 L73.5395,132.2517 C72.8155,132.2517 72.2285,132.8387 72.2285,133.5627 C72.2285,134.2867 72.8155,134.8737 73.5395,134.8737 L109.2255,134.8737 C109.9495,134.8737 110.5365,134.2867 110.5365,133.5627 C110.5365,132.8387 109.9495,132.2517 109.2255,132.2517" id="Fill-13" fill="#EC2978"></path>
            <path d="M105.2089,139.385 L77.5559,139.385 C76.8319,139.385 76.2449,139.972 76.2449,140.696 C76.2449,141.42 76.8319,142.007 77.5559,142.007 L105.2089,142.007 C105.9329,142.007 106.5199,141.42 106.5199,140.696 C106.5199,139.972 105.9329,139.385 105.2089,139.385" id="Fill-15" fill="#EC2978"></path>
        </g>
    </g>
</svg>