<svg width="181" height="117" viewBox="0 0 181 117" xmlns="http://www.w3.org/2000/svg" xmlns:xlink="http://www.w3.org/1999/xlink"><title>Page 1</title><defs><path id="a" d="M181 58.148V0H0v116.297h181z"/></defs><g fill="none" fill-rule="evenodd"><mask id="b" fill="#fff"><use xlink:href="#a"/></mask><path d="M43.343 58.669h95.361V35.083H43.343v23.586zm96.861 3a1.5 1.5 0 0 0 1.5-1.5V33.583a1.5 1.5 0 0 0-1.5-1.5H41.843a1.5 1.5 0 0 0-1.5 1.5v26.586a1.5 1.5 0 0 0 1.5 1.5h98.361zm19.917 22.807l-1.5.544-.73.265a1.492 1.492 0 0 0-.918.954 1.49 1.49 0 0 0 .148 1.222c.017.028.027.059.046.086l1.454 2.104 1.5 2.17 4.67 6.758a.34.34 0 0 1-.085.47l-3.404 2.354a.336.336 0 0 1-.471-.086l-.71-1.027-1.5-2.17-1.5-2.171-3.915-5.664a1.5 1.5 0 0 0-1.156-.646l-.078-.002c-.074 0-.145.013-.216.024a1.484 1.484 0 0 0-.923.5l-.577.672-1.5 1.748-2.844 3.316-3.785-25.881 6.63 3.68 1.5.832 1.5.832 5.364 2.978 1.5.832 1.5.833 4.876 2.706-4.876 1.767zm9.213-2.791l-9.213-5.113-1.5-.833-1.5-.832-5.365-2.978-1.5-.833-1.5-.832-7.824-4.343a1.501 1.501 0 0 0-2.212 1.529l.641 4.386.296 2.022L143.16 97.8l.22 1.5.042.29a1.494 1.494 0 0 0 1.035 1.21c.012.004.02.012.032.015.292.085.594.074.871-.015.261-.083.5-.233.685-.45l.901-1.05 1.287-1.5h.078c.246 0 .446-.2.446-.445v-.165l1.5-1.75 1.5-1.747.088-.103 5.277 7.636 1.24 1.795c.076.109.173.194.26.293.406.46.92.8 1.5.98.318.1.648.169.99.169a3.33 3.33 0 0 0 1.896-.591l3.404-2.353a3.344 3.344 0 0 0 .85-4.645l-6.52-9.432 8.376-3.035a1.499 1.499 0 0 0 .217-2.722z" fill="#EC2978" mask="url(#b)"/><path d="M148.756 97.19v.165c0 .245-.2.445-.445.445h-.078l-1.288 1.5-.901 1.05a1.493 1.493 0 0 1-.684.45h2.95a3.45 3.45 0 0 0 3.446-3.445v-3.662l-1.5 1.748-1.5 1.749zM44.233 74.399h93.58c.748 0 1.406-.213 1.845-.541l-.296-2.022a3.375 3.375 0 0 0-1.548-.355H44.233c-1.32 0-2.39.653-2.39 1.459s1.07 1.459 2.39 1.459m0 10.699h93.58c1.32 0 2.392-.653 2.392-1.46 0-.805-1.072-1.458-2.392-1.458h-93.58c-1.32 0-2.39.653-2.39 1.459s1.07 1.459 2.39 1.459" fill="#999B9E" mask="url(#b)"/><path d="M178 112.852c0 .245-.2.445-.445.445H3.445a.446.446 0 0 1-.445-.445v-3.891c0-.245.2-.445.445-.445h174.11c.245 0 .445.2.445.445v3.89zm-.445-7.336h-17.458c.006-.08.024-.156.024-.237v-.984a3.31 3.31 0 0 1-1.5-.981c-.087-.1-.184-.184-.26-.293l-1.24-1.795v4.053a.479.479 0 0 1-.069.237H23.755a.469.469 0 0 1-.069-.237V3.497c0-.274.221-.497.495-.497h132.443c.274 0 .497.223.497.497v71.41l1.5.832 1.5.833V3.497A3.5 3.5 0 0 0 156.624 0H24.181a3.5 3.5 0 0 0-3.495 3.497v101.782c0 .08.018.157.024.237H3.445A3.45 3.45 0 0 0 0 108.96v3.89a3.45 3.45 0 0 0 3.445 3.446h174.11a3.45 3.45 0 0 0 3.445-3.445v-3.891a3.45 3.45 0 0 0-3.445-3.445z" fill="#999B9E" mask="url(#b)"/><path d="M148.756 23.279H33.089v-11.32c0-.245.2-.445.446-.445H148.31c.245 0 .445.2.445.446v11.319zm3-11.32a3.45 3.45 0 0 0-3.445-3.445H33.535a3.45 3.45 0 0 0-3.446 3.446v85.394a3.45 3.45 0 0 0 3.446 3.447h110.92a1.496 1.496 0 0 1-1.034-1.21l-.043-.29-.22-1.5H33.536a.448.448 0 0 1-.446-.447V26.28h115.667v43.984l1.5.832 1.5.834V11.96z" fill="#999B9E" mask="url(#b)"/><path d="M40.191 14.769a2.892 2.892 0 0 0-2.889 2.889 2.892 2.892 0 0 0 2.89 2.888 2.892 2.892 0 0 0 2.888-2.888 2.892 2.892 0 0 0-2.889-2.89m7.485.001a2.892 2.892 0 0 0-2.89 2.889 2.892 2.892 0 0 0 2.89 2.888 2.891 2.891 0 0 0 2.888-2.888 2.891 2.891 0 0 0-2.888-2.89m7.414.001a2.892 2.892 0 0 0-2.888 2.889 2.892 2.892 0 0 0 2.889 2.888 2.892 2.892 0 0 0 2.889-2.888 2.892 2.892 0 0 0-2.89-2.89" fill="#999B9E" mask="url(#b)"/></g></svg>