<?xml version="1.0" encoding="UTF-8" standalone="no"?>
<svg width="47px" height="35px" viewBox="0 0 47 35" version="1.1" xmlns="http://www.w3.org/2000/svg" xmlns:xlink="http://www.w3.org/1999/xlink">
    <!-- Generator: Sketch 39 (31667) - http://www.bohemiancoding.com/sketch -->
    <title>Page 1</title>
    <desc>Created with Sketch.</desc>
    <defs>
        <polygon id="path-1" points="0 34.1718 45.184 34.1718 45.184 -0.0002 0 -0.0002"></polygon>
    </defs>
    <g id="Page-1" stroke="none" stroke-width="1" fill="none" fill-rule="evenodd">
        <g transform="translate(1.000000, 0.000000)">
            <path d="M35.2568,30.8183 C35.2568,31.1893 34.9518,31.4943 34.5818,31.4943 L1.1758,31.4943 C0.8028,31.4943 0.4998,31.1893 0.4998,30.8183 L0.4998,1.1753 C0.4998,0.8023 0.8028,0.5003 1.1758,0.5003 L34.5818,0.5003 C34.9518,0.5003 35.2568,0.8023 35.2568,1.1753 L35.2568,30.8183 L35.2568,30.8183 Z" id="Fill-1" fill="#FEFEFE"></path>
            <path d="M35.2568,30.8183 C35.2568,31.1893 34.9518,31.4943 34.5818,31.4943 L1.1758,31.4943 C0.8028,31.4943 0.4998,31.1893 0.4998,30.8183 L0.4998,1.1753 C0.4998,0.8023 0.8028,0.5003 1.1758,0.5003 L34.5818,0.5003 C34.9518,0.5003 35.2568,0.8023 35.2568,1.1753 L35.2568,30.8183 L35.2568,30.8183 Z" id="Stroke-3" stroke="#939597"></path>
            <path d="M3.9677,3.1523 C3.9677,3.4203 3.7527,3.6343 3.4867,3.6343 C3.2207,3.6343 3.0037,3.4203 3.0037,3.1523 C3.0037,2.8863 3.2207,2.6723 3.4867,2.6723 C3.7527,2.6723 3.9677,2.8863 3.9677,3.1523" id="Fill-5" fill="#FEFEFE"></path>
            <path d="M3.9677,3.1523 C3.9677,3.4203 3.7527,3.6343 3.4867,3.6343 C3.2207,3.6343 3.0037,3.4203 3.0037,3.1523 C3.0037,2.8863 3.2207,2.6723 3.4867,2.6723 C3.7527,2.6723 3.9677,2.8863 3.9677,3.1523 L3.9677,3.1523 Z" id="Stroke-7" stroke="#939597"></path>
            <path d="M6.5654,3.1523 C6.5654,3.4203 6.3504,3.6343 6.0854,3.6343 C5.8184,3.6343 5.6014,3.4203 5.6014,3.1523 C5.6014,2.8863 5.8184,2.6723 6.0854,2.6723 C6.3504,2.6723 6.5654,2.8863 6.5654,3.1523" id="Fill-9" fill="#FEFEFE"></path>
            <path d="M6.5654,3.1523 C6.5654,3.4203 6.3504,3.6343 6.0854,3.6343 C5.8184,3.6343 5.6014,3.4203 5.6014,3.1523 C5.6014,2.8863 5.8184,2.6723 6.0854,2.6723 C6.3504,2.6723 6.5654,2.8863 6.5654,3.1523 L6.5654,3.1523 Z" id="Stroke-11" stroke="#939597"></path>
            <path d="M9.1406,3.1523 C9.1406,3.4203 8.9256,3.6343 8.6586,3.6343 C8.3936,3.6343 8.1766,3.4203 8.1766,3.1523 C8.1766,2.8863 8.3936,2.6723 8.6586,2.6723 C8.9256,2.6723 9.1406,2.8863 9.1406,3.1523" id="Fill-13" fill="#FEFEFE"></path>
            <path d="M9.1406,3.1523 C9.1406,3.4203 8.9256,3.6343 8.6586,3.6343 C8.3936,3.6343 8.1766,3.4203 8.1766,3.1523 C8.1766,2.8863 8.3936,2.6723 8.6586,2.6723 C8.9256,2.6723 9.1406,2.8863 9.1406,3.1523 L9.1406,3.1523 Z" id="Stroke-15" stroke="#939597"></path>
            <mask id="mask-2" fill="white">
                <use xlink:href="#path-1"></use>
            </mask>
            <g id="Clip-18"></g>
            <polygon id="Stroke-17" stroke="#939597" stroke-linecap="round" stroke-linejoin="round" mask="url(#mask-2)" points="4.061 17.9078 31.768 17.9078 31.768 8.6808 4.061 8.6808"></polygon>
            <path d="M0.5,5.623 L35.257,5.623" id="Stroke-19" stroke="#939597" mask="url(#mask-2)"></path>
            <path d="M4.0605,22.3437 L31.7675,22.3437" id="Stroke-20" stroke="#939597" stroke-linecap="round" mask="url(#mask-2)"></path>
            <path d="M4.0605,26.6347 L31.7675,26.6347" id="Stroke-21" stroke="#939597" stroke-linecap="round" mask="url(#mask-2)"></path>
            <path d="M25.8281,17.248 C25.8281,15.906 26.9181,14.816 28.2611,14.816 L42.2511,14.816 C43.5941,14.816 44.6831,15.906 44.6831,17.248 L44.6831,31.238 C44.6831,32.582 43.5941,33.672 42.2511,33.672 L28.2611,33.672 C26.9181,33.672 25.8281,32.582 25.8281,31.238 L25.8281,17.248 Z" id="Fill-22" fill="#FEFEFE" mask="url(#mask-2)"></path>
            <path d="M25.8281,17.248 C25.8281,15.906 26.9181,14.816 28.2611,14.816 L42.2511,14.816 C43.5941,14.816 44.6831,15.906 44.6831,17.248 L44.6831,31.238 C44.6831,32.582 43.5941,33.672 42.2511,33.672 L28.2611,33.672 C26.9181,33.672 25.8281,32.582 25.8281,31.238 L25.8281,17.248 L25.8281,17.248 Z" id="Stroke-23" stroke="#939597" stroke-linecap="round" mask="url(#mask-2)"></path>
            <g id="Group-26" mask="url(#mask-2)">
                <g transform="translate(30.000000, 19.171800)">
                    <path d="M0.3896,0.2578 L0.3896,9.8868" id="Fill-24" stroke="none" fill="#FEFEFE" fill-rule="evenodd"></path>
                    <path d="M0.3896,0.2578 L0.3896,9.8868" id="Stroke-25" stroke="#939597" stroke-width="1" stroke-linecap="round" fill="none"></path>
                </g>
            </g>
            <g id="Group-29" mask="url(#mask-2)">
                <g transform="translate(35.000000, 19.171800)">
                    <path d="M0.2568,0.2578 L0.2568,9.8868" id="Fill-27" stroke="none" fill="#FEFEFE" fill-rule="evenodd"></path>
                    <path d="M0.2568,0.2578 L0.2568,9.8868" id="Stroke-28" stroke="#939597" stroke-width="1" stroke-linecap="round" fill="none"></path>
                </g>
            </g>
            <g id="Group-32" mask="url(#mask-2)">
                <g transform="translate(40.000000, 19.171800)">
                    <path d="M0.122,0.2578 L0.122,9.8868" id="Fill-30" stroke="none" fill="#FEFEFE" fill-rule="evenodd"></path>
                    <path d="M0.122,0.2578 L0.122,9.8868" id="Stroke-31" stroke="#939597" stroke-width="1" stroke-linecap="round" fill="none"></path>
                </g>
            </g>
            <path d="M31.9111,20.5175 C31.9111,21.3725 31.2181,22.0645 30.3631,22.0645 C29.5111,22.0645 28.8181,21.3725 28.8181,20.5175 C28.8181,19.6635 29.5111,18.9725 30.3631,18.9725 C31.2181,18.9725 31.9111,19.6635 31.9111,20.5175" id="Fill-33" fill="#FEFEFE" mask="url(#mask-2)"></path>
            <path d="M31.9111,20.5175 C31.9111,21.3725 31.2181,22.0645 30.3631,22.0645 C29.5111,22.0645 28.8181,21.3725 28.8181,20.5175 C28.8181,19.6635 29.5111,18.9725 30.3631,18.9725 C31.2181,18.9725 31.9111,19.6635 31.9111,20.5175 L31.9111,20.5175 Z" id="Stroke-34" stroke="#939597" stroke-linecap="round" mask="url(#mask-2)"></path>
            <path d="M36.8027,25.4492 C36.8027,26.3042 36.1107,26.9962 35.2567,26.9962 C34.4027,26.9962 33.7097,26.3042 33.7097,25.4492 C33.7097,24.5952 34.4027,23.9042 35.2567,23.9042 C36.1107,23.9042 36.8027,24.5952 36.8027,25.4492" id="Fill-35" fill="#FEFEFE" mask="url(#mask-2)"></path>
            <path d="M36.8027,25.4492 C36.8027,26.3042 36.1107,26.9962 35.2567,26.9962 C34.4027,26.9962 33.7097,26.3042 33.7097,25.4492 C33.7097,24.5952 34.4027,23.9042 35.2567,23.9042 C36.1107,23.9042 36.8027,24.5952 36.8027,25.4492 L36.8027,25.4492 Z" id="Stroke-36" stroke="#939597" stroke-linecap="round" mask="url(#mask-2)"></path>
            <path d="M41.667,22.9648 C41.667,23.8198 40.975,24.5118 40.121,24.5118 C39.267,24.5118 38.575,23.8198 38.575,22.9648 C38.575,22.1108 39.267,21.4198 40.121,21.4198 C40.975,21.4198 41.667,22.1108 41.667,22.9648" id="Fill-37" fill="#FEFEFE" mask="url(#mask-2)"></path>
            <path d="M41.667,22.9648 C41.667,23.8198 40.975,24.5118 40.121,24.5118 C39.267,24.5118 38.575,23.8198 38.575,22.9648 C38.575,22.1108 39.267,21.4198 40.121,21.4198 C40.975,21.4198 41.667,22.1108 41.667,22.9648 L41.667,22.9648 Z" id="Stroke-38" stroke="#939597" stroke-linecap="round" mask="url(#mask-2)"></path>
        </g>
    </g>
</svg>