<svg width="114" height="134" viewBox="0 0 114 134" xmlns="http://www.w3.org/2000/svg" xmlns:xlink="http://www.w3.org/1999/xlink"><title>Page 1</title><defs><path id="a" d="M.362 72h49.874V.694H.362V72z"/></defs><g fill="none" fill-rule="evenodd"><path d="M99.839 95.712v10.178c0 5.2-4.217 9.418-9.42 9.418h-2.995l-.95 1.5-.95 1.5h4.896c6.848 0 12.419-5.571 12.419-12.418V90.977l-1.5 2.368-1.5 2.367zM87.752 17.146l-.111.004c-.284.014-1.174-.045-1.567-.438-.305-.304-.41-1.092-.385-1.518L85.69 4.5l12.648 12.646H87.752zm14.208-.62L86.314.877A3.004 3.004 0 0 0 84.192 0H12.418C5.57 0 0 5.57 0 12.417v93.472c0 6.848 5.57 12.418 12.418 12.418h51.516l.06-1.5.063-1.5h-51.64A9.419 9.419 0 0 1 3 105.89V12.417C3 7.217 7.217 3 12.418 3h70.274v12.042c-.022.444-.047 2.484 1.26 3.791 1.183 1.183 2.88 1.32 3.596 1.32.106 0 .19-.004.248-.007h12.043v42.366c.325-.05.655-.083.99-.083.172 0 .34.023.51.036.512.04 1.015.137 1.5.296V18.646c0-.796-.316-1.559-.88-2.12z" fill="#9A9C9F"/><path d="M21.896 43.038h58.725a1.5 1.5 0 1 0 0-3H21.897a1.5 1.5 0 0 0 0 3m-.001 18.684h58.725a1.5 1.5 0 1 0 0-3H21.897a1.5 1.5 0 0 0 0 3M82.12 78.907a1.5 1.5 0 0 0-1.5-1.5H21.896a1.5 1.5 0 0 0 0 3H80.62a1.5 1.5 0 0 0 1.5-1.5" fill="#EC2978"/><g transform="translate(63 61.735)"><mask id="b" fill="#fff"><use xlink:href="#a"/></mask><path d="M46.695 12.815l-3.658 5.771-3.198-2.026-1.5-.95-1.5-.95-5.628-3.566 3.658-5.772a3.478 3.478 0 0 1 1.97-1.482 3.55 3.55 0 0 1 .991-.146 3.494 3.494 0 0 1 1.868.545l.141.09 5.772 3.655a3.506 3.506 0 0 1 1.084 4.831zm-6.856 10.82l-1.5 2.368-1.5 2.368-15.967 25.201-.95 1.5-.95 1.5-2.515 3.97-6.267-3.97-2.368-1.5-2.367-1.5-.824-.523 24.974-39.42 7.234 4.582 1.5.951 1.5.95 1.592 1.01-1.592 2.513zM3.466 67.965l.47-11.393h.648l9.34 5.917-10.458 5.476zM47.216 5.45l-5.913-3.745a6.483 6.483 0 0 0-1.464-.679 6.431 6.431 0 0 0-1.5-.296c-.17-.014-.338-.036-.509-.036-.336 0-.666.033-.99.083a6.456 6.456 0 0 0-4.506 2.94l-4.459 7.04L1.293 52.71a1.57 1.57 0 0 0-.148.32c-.01.031-.017.063-.026.096a1.46 1.46 0 0 0-.047.264c0 .021-.01.04-.01.062l-.006.12-.06 1.5-.063 1.5-.57 13.865a1.498 1.498 0 0 0 2.193 1.391l15.061-7.888c.002 0 .004-.004.006-.005.115-.06.22-.137.318-.226.036-.034.063-.077.095-.114.052-.059.108-.113.151-.18l4.336-6.844.95-1.5.951-1.5L36.84 33.976l1.5-2.367 1.5-2.368 4.93-7.78 4.46-7.04a6.508 6.508 0 0 0-2.013-8.97z" fill="#EC2978" mask="url(#b)"/></g><path d="M94.824 79.335a1.502 1.502 0 0 0-2.07.465L72.06 112.463a1.501 1.501 0 0 0 2.535 1.605L95.29 81.405c.443-.7.234-1.627-.465-2.07m5.069 3.212c-.019-.01-.037-.017-.056-.026a1.49 1.49 0 0 0-2.013.49l-20.463 32.297-.233.365a1.5 1.5 0 0 0 2.534 1.605l.3-.47.95-1.5 18.925-29.872.52-.82a1.5 1.5 0 0 0-.465-2.069" fill="#EC2978"/></g></svg>