<?xml version="1.0" encoding="UTF-8" standalone="no"?>
<svg width="158px" height="107px" viewBox="0 0 158 107" version="1.1" xmlns="http://www.w3.org/2000/svg" xmlns:xlink="http://www.w3.org/1999/xlink">
    <!-- Generator: Sketch 39 (31667) - http://www.bohemiancoding.com/sketch -->
    <title>Page 1</title>
    <desc>Created with Sketch.</desc>
    <defs>
        <polygon id="path-1" points="109.286 77.4411 109.286 0.8051 0.4834 0.8051 0.4834 77.4411 109.286 77.4411"></polygon>
    </defs>
    <g id="Page-1" stroke="none" stroke-width="1" fill="none" fill-rule="evenodd">
        <g transform="translate(0.000000, -1.000000)">
            <path d="M112.4794,104.195 C107.2884,104.195 103.0634,99.971 103.0634,94.78 C103.0634,89.588 107.2884,85.363 112.4794,85.363 C117.6704,85.363 121.8954,89.588 121.8954,94.78 C121.8954,99.971 117.6704,104.195 112.4794,104.195 M112.4794,82.363 C105.6334,82.363 100.0634,87.933 100.0634,94.78 C100.0634,101.626 105.6334,107.195 112.4794,107.195 C119.3254,107.195 124.8954,101.626 124.8954,94.78 C124.8954,87.933 119.3254,82.363 112.4794,82.363" id="Fill-1" fill="#999B9E"></path>
            <path d="M124.3847,78.323 C124.2757,78.396 124.1547,78.449 124.0307,78.49 C124.1567,78.448 124.2767,78.395 124.3847,78.323" id="Fill-3" fill="#999B9E"></path>
            <path d="M124.9423,77.6364 C124.8893,77.7654 124.8183,77.8794 124.7373,77.9854 C124.8193,77.8784 124.8903,77.7634 124.9423,77.6364" id="Fill-5" fill="#999B9E"></path>
            <path d="M123.5517,78.5759 C123.6907,78.5759 123.8207,78.5519 123.9457,78.5169 C123.8197,78.5529 123.6867,78.5759 123.5517,78.5759" id="Fill-7" fill="#999B9E"></path>
            <path d="M124.6787,78.0564 C124.5917,78.1564 124.4957,78.2484 124.3877,78.3224 C124.4967,78.2474 124.5927,78.1564 124.6787,78.0564" id="Fill-9" fill="#999B9E"></path>
            <path d="M72.5498,104.195 C67.3588,104.195 63.1338,99.971 63.1338,94.78 C63.1338,89.588 67.3588,85.363 72.5498,85.363 C77.7418,85.363 81.9658,89.588 81.9658,94.78 C81.9658,99.971 77.7418,104.195 72.5498,104.195 M72.5498,82.363 C65.7038,82.363 60.1338,87.933 60.1338,94.78 C60.1338,101.626 65.7038,107.195 72.5498,107.195 C79.3968,107.195 84.9658,101.626 84.9658,94.78 C84.9658,87.933 79.3968,82.363 72.5498,82.363" id="Fill-11" fill="#999B9E"></path>
            <path d="M72.5498,99.2614 C70.0788,99.2614 68.0678,97.2504 68.0678,94.7794 C68.0678,92.3074 70.0788,90.2964 72.5498,90.2964 C75.0218,90.2964 77.0318,92.3074 77.0318,94.7794 C77.0318,97.2504 75.0218,99.2614 72.5498,99.2614 M72.5498,87.2964 C68.4248,87.2964 65.0678,90.6534 65.0678,94.7794 C65.0678,98.9054 68.4248,102.2614 72.5498,102.2614 C76.6758,102.2614 80.0318,98.9054 80.0318,94.7794 C80.0318,90.6534 76.6758,87.2964 72.5498,87.2964" id="Fill-13" fill="#EC2A78"></path>
            <path d="M112.4794,99.2614 C110.0074,99.2614 107.9974,97.2504 107.9974,94.7794 C107.9974,92.3074 110.0074,90.2964 112.4794,90.2964 C114.9504,90.2964 116.9614,92.3074 116.9614,94.7794 C116.9614,97.2504 114.9504,99.2614 112.4794,99.2614 M112.4794,87.2964 C108.3534,87.2964 104.9974,90.6534 104.9974,94.7794 C104.9974,98.9054 108.3534,102.2614 112.4794,102.2614 C116.6044,102.2614 119.9614,98.9054 119.9614,94.7794 C119.9614,90.6534 116.6044,87.2964 112.4794,87.2964" id="Fill-15" fill="#EC2A78"></path>
            <path d="M115.9697,25.7683 L118.6647,25.7683 C119.3877,25.7683 119.9597,25.9133 120.3817,26.2043 C120.8057,26.4943 121.0167,26.9403 121.0167,27.5383 L121.0167,27.5913 C121.0167,27.8423 120.9677,28.0653 120.8837,28.2673 C120.7797,28.5193 120.6167,28.7373 120.3817,28.9123 C119.9597,29.2303 119.3777,29.3883 118.6387,29.3883 L115.9697,29.3883 L115.9697,28.2673 L115.9697,25.7683 Z M126.1957,30.5773 C126.8477,29.6443 127.1737,28.4983 127.1737,27.1423 L127.1737,27.0893 C127.1737,26.1383 127.0317,25.3103 126.7507,24.6053 C126.4687,23.9013 126.0457,23.2673 125.4827,22.7023 C124.8307,22.0513 123.9717,21.5363 122.9057,21.1573 C121.8397,20.7783 120.4797,20.5883 118.8227,20.5883 L109.7857,20.5883 L109.7857,28.2673 L109.7857,29.7673 L109.7857,31.2673 L109.7857,39.0863 L115.9697,39.0863 L115.9697,33.8013 L117.2377,33.8013 L117.2897,33.8013 L120.7787,39.0863 L127.8347,39.0863 L123.5277,32.7973 C124.6537,32.2513 125.5437,31.5113 126.1957,30.5773 L126.1957,30.5773 Z" id="Fill-17" fill="#EC2978"></path>
            <path d="M140.1484,33.7224 C140.1484,34.0044 140.0204,34.2334 139.7654,34.4094 C139.5094,34.5854 139.0734,34.6914 138.4584,34.7264 L138.4584,32.5854 C139.1264,32.7094 139.5754,32.8504 139.8054,33.0084 C140.0344,33.1674 140.1484,33.3874 140.1484,33.6694 L140.1484,33.7224 Z M136.0264,27.0894 C135.3384,26.9664 134.8724,26.8214 134.6264,26.6544 C134.3784,26.4864 134.2554,26.2614 134.2554,25.9804 L134.2554,25.9264 C134.2554,25.6624 134.3874,25.4384 134.6524,25.2524 C134.9174,25.0684 135.3744,24.9664 136.0264,24.9494 L136.0264,27.0894 Z M144.9714,30.8814 C144.6634,30.2394 144.2134,29.6924 143.6244,29.2434 C143.0334,28.7934 142.3114,28.4194 141.4564,28.1194 C140.6024,27.8214 139.6204,27.5654 138.5104,27.3544 L138.5104,25.1874 C139.1614,25.3274 139.8224,25.5314 140.4924,25.7944 C141.1614,26.0594 141.7784,26.3944 142.3414,26.7984 L144.8784,22.7824 C143.9974,22.2184 143.0504,21.7514 142.0384,21.3814 C141.0244,21.0114 139.9014,20.7654 138.6694,20.6424 L138.6694,19.0564 L135.9204,19.0564 L135.9204,20.5624 C134.7404,20.6154 133.7054,20.8004 132.8154,21.1184 C131.9254,21.4344 131.1864,21.8534 130.5954,22.3724 C130.0044,22.8924 129.5654,23.5044 129.2744,24.2094 C128.9834,24.9134 128.8384,25.6714 128.8384,26.4824 L128.8384,26.5354 C128.8384,27.3984 128.9934,28.1424 129.3014,28.7674 C129.6084,29.3934 130.0634,29.9354 130.6624,30.3924 C131.2604,30.8514 132.0044,31.2344 132.8954,31.5424 C133.7844,31.8504 134.8104,32.1194 135.9734,32.3484 L135.9734,34.5414 C135.1284,34.4184 134.2474,34.1804 133.3314,33.8274 C132.4154,33.4764 131.4634,32.9824 130.4774,32.3484 L127.7824,36.3384 C128.9094,37.1144 130.1594,37.7304 131.5344,38.1884 C132.9084,38.6464 134.3354,38.9374 135.8154,39.0604 L135.8154,41.6764 L138.5634,41.6764 L138.5634,39.0864 C139.6024,39.0164 140.5444,38.8314 141.3904,38.5324 C142.2364,38.2324 142.9584,37.8404 143.5574,37.3564 C144.1564,36.8714 144.6184,36.2864 144.9444,35.5984 C145.2704,34.9114 145.4334,34.1274 145.4334,33.2464 L145.4334,33.1944 C145.4334,32.2954 145.2794,31.5254 144.9714,30.8814 L144.9714,30.8814 Z" id="Fill-19" fill="#EC2978"></path>
            <path d="M124.3876,78.322 L124.3846,78.323 C124.3856,78.322 124.3856,78.322 124.3876,78.322" id="Fill-21" fill="#999B9E"></path>
            <path d="M124.7373,77.9851 C124.7193,78.0091 124.6993,78.0331 124.6783,78.0561 C124.7003,78.0331 124.7183,78.0091 124.7373,77.9851" id="Fill-23" fill="#999B9E"></path>
            <path d="M124.0312,78.49 C124.0032,78.5 123.9752,78.51 123.9462,78.517 C123.9752,78.508 124.0032,78.5 124.0312,78.49" id="Fill-25" fill="#999B9E"></path>
            <path d="M124.1005,75.6833 L123.5515,77.0763 L122.0555,77.0763 C122.0555,77.6733 122.4125,78.2393 123.0025,78.4713 C123.1825,78.5423 123.3685,78.5763 123.5515,78.5763 C123.6865,78.5763 123.8195,78.5523 123.9465,78.5173 C123.9755,78.5093 124.0025,78.4993 124.0315,78.4903 C124.1555,78.4493 124.2755,78.3963 124.3845,78.3233 L124.3875,78.3223 C124.4965,78.2483 124.5915,78.1573 124.6785,78.0563 C124.6995,78.0333 124.7195,78.0093 124.7375,77.9853 C124.8185,77.8793 124.8895,77.7653 124.9425,77.6363 C125.0115,77.4623 125.0515,77.2743 125.0515,77.0763 C125.0515,76.4423 124.6575,75.9023 124.1005,75.6833" id="Fill-27" fill="#999B9E"></path>
            <path d="M122.0556,77.0759 L123.5516,77.0759 L124.1006,75.6829 C123.9306,75.6159 123.7466,75.5759 123.5516,75.5759 L122.5316,75.5759 L122.1576,76.5259 C122.0846,76.7069 122.0556,76.8919 122.0556,77.0759" id="Fill-29" fill="#999B9E"></path>
            <g id="Group-33" transform="translate(48.000000, 0.195000)">
                <mask id="mask-2" fill="white">
                    <use xlink:href="#path-1"></use>
                </mask>
                <g id="Clip-32"></g>
                <path d="M80.0634,56.2481 C72.2434,56.2481 65.2154,52.8021 60.4074,47.3531 C59.9794,46.8681 59.5674,46.3691 59.1744,45.8531 C58.8054,45.3671 58.4544,44.8651 58.1194,44.3531 C55.5984,40.5061 54.0614,35.9601 53.8684,31.0721 C53.8544,30.7251 53.8424,30.3771 53.8424,30.0261 C53.8424,29.8741 53.8504,29.7241 53.8544,29.5721 C53.8624,29.0681 53.8854,28.5681 53.9224,28.0721 C54.9264,14.5231 66.2634,3.8051 80.0634,3.8051 C94.5224,3.8051 106.2864,15.5671 106.2864,30.0261 C106.2864,44.4851 94.5224,56.2481 80.0634,56.2481 M80.0634,0.8051 C64.6084,0.8051 51.9244,12.8671 50.9154,28.0721 L1.9834,28.0721 C1.1554,28.0721 0.4834,28.7441 0.4834,29.5721 C0.4834,30.4001 1.1554,31.0721 1.9834,31.0721 L50.8684,31.0721 C51.0394,35.8851 52.3774,40.4021 54.6104,44.3531 L9.4054,44.3531 C8.5764,44.3531 7.9054,45.0251 7.9054,45.8531 C7.9054,46.6821 8.5764,47.3531 9.4054,47.3531 L56.5514,47.3531 C61.8774,54.5621 70.4324,59.2481 80.0634,59.2481 L14.2344,59.2481 C13.4054,59.2481 12.7344,59.9201 12.7344,60.7481 C12.7344,61.5761 13.4054,62.2481 14.2344,62.2481 L79.7064,62.2481 L74.5314,75.3811 L75.5514,75.3811 C75.7474,75.3811 75.9304,75.4211 76.1004,75.4881 C76.6574,75.7071 77.0514,76.2471 77.0514,76.8811 C77.0514,77.0791 77.0114,77.2681 76.9424,77.4411 C76.9434,77.4371 76.9464,77.4351 76.9484,77.4311 L84.2314,58.9461 C98.3754,56.9171 109.2864,44.7251 109.2864,30.0261 C109.2864,13.9131 96.1764,0.8051 80.0634,0.8051" id="Fill-31" fill="#999B9E" mask="url(#mask-2)"></path>
            </g>
            <path d="M35.0712,8.5027 C35.0672,8.4917 35.0602,8.4827 35.0552,8.4727 C35.0352,8.4197 35.0092,8.3717 34.9832,8.3217 C34.9622,8.2837 34.9442,8.2437 34.9202,8.2067 C34.8922,8.1647 34.8602,8.1277 34.8292,8.0887 C34.8002,8.0517 34.7712,8.0127 34.7382,7.9787 C34.7052,7.9437 34.6672,7.9147 34.6322,7.8847 C34.5952,7.8537 34.5592,7.8197 34.5202,7.7927 C34.4792,7.7647 34.4362,7.7427 34.3932,7.7187 C34.3522,7.6957 34.3132,7.6707 34.2682,7.6507 C34.2272,7.6327 34.1822,7.6207 34.1392,7.6057 C34.0912,7.5897 34.0422,7.5707 33.9912,7.5597 C33.9522,7.5507 33.9112,7.5477 33.8722,7.5427 C33.8122,7.5337 33.7532,7.5247 33.6922,7.5237 C33.6822,7.5237 33.6732,7.5217 33.6632,7.5217 L1.5002,7.5217 C0.6712,7.5217 0.0002,8.1927 0.0002,9.0217 C0.0002,9.8497 0.6712,10.5217 1.5002,10.5217 L32.6172,10.5217 L57.3322,77.5947 C57.3352,77.6027 57.3412,77.6077 57.3452,77.6157 C57.3942,77.7457 57.4622,77.8627 57.5422,77.9707 C57.5592,77.9937 57.5802,78.0177 57.5992,78.0407 C57.6822,78.1387 57.7742,78.2287 57.8792,78.3017 C57.8842,78.3057 57.8892,78.3107 57.8952,78.3147 C58.0052,78.3897 58.1282,78.4447 58.2532,78.4877 C58.2812,78.4977 58.3092,78.5067 58.3392,78.5147 C58.4682,78.5507 58.6022,78.5757 58.7392,78.5757 L123.5522,78.5757 C123.3682,78.5757 123.1822,78.5427 123.0032,78.4717 C122.4122,78.2387 122.0552,77.6737 122.0552,77.0757 C122.0552,76.8927 122.0852,76.7067 122.1572,76.5257 L122.5312,75.5757 L59.7862,75.5757 L35.0712,8.5027 Z" id="Fill-34" fill="#999B9E"></path>
        </g>
    </g>
</svg>