<?xml version="1.0" encoding="UTF-8" standalone="no"?>
<svg width="114px" height="134px" viewBox="0 0 114 134" version="1.1" xmlns="http://www.w3.org/2000/svg" xmlns:xlink="http://www.w3.org/1999/xlink">
    <!-- Generator: Sketch 39 (31667) - http://www.bohemiancoding.com/sketch -->
    <title>Page 1</title>
    <desc>Created with Sketch.</desc>
    <defs>
        <polygon id="path-1" points="0.361915962 72 50.2358504 72 50.2358504 0.6944 0.361915962 0.6944 0.361915962 72"></polygon>
    </defs>
    <g id="Page-1" stroke="none" stroke-width="1" fill="none" fill-rule="evenodd">
        <g transform="translate(0.000000, -1.000000)">
            <path d="M99.8388,96.7116 L99.8388,106.8896 C99.8388,112.0906 95.6218,116.3076 90.4198,116.3076 L87.4238,116.3076 L86.4738,117.8076 L85.5238,119.3076 L90.4198,119.3076 C97.2678,119.3076 102.8388,113.7366 102.8388,106.8896 L102.8388,91.9766 L101.3388,94.3446 L99.8388,96.7116 Z" id="Fill-1" fill="#9A9C9F"></path>
            <g id="Group-5" transform="translate(0.000000, 0.735000)" fill="#9A9C9F">
                <path d="M87.7519,17.4111 L87.6409,17.4151 C87.3569,17.4291 86.4669,17.3701 86.0739,16.9771 C85.7689,16.6731 85.6639,15.8851 85.6889,15.4591 L85.6909,4.7651 L98.3389,17.4111 L87.7519,17.4111 Z M101.9599,16.7901 L86.3139,1.1431 C85.7509,0.5811 84.9879,0.2651 84.1919,0.2651 L79.7439,0.2651 L12.4179,0.2651 C5.5699,0.2651 -0.0001,5.8351 -0.0001,12.6821 L-0.0001,106.1541 C-0.0001,113.0021 5.5699,118.5721 12.4179,118.5721 L63.9339,118.5721 L63.9949,117.0721 L64.0569,115.5721 L12.4179,115.5721 C7.2169,115.5721 2.9999,111.3551 2.9999,106.1541 L2.9999,12.6821 C2.9999,7.4811 7.2169,3.2651 12.4179,3.2651 L79.7439,3.2651 L82.6919,3.2651 L82.6919,15.3071 C82.6699,15.7511 82.6449,17.7911 83.9519,19.0981 C85.1349,20.2811 86.8329,20.4171 87.5479,20.4171 C87.6539,20.4171 87.7379,20.4141 87.7959,20.4111 L99.8389,20.4111 L99.8389,23.3591 L99.8389,62.7771 C100.1639,62.7271 100.4939,62.6941 100.8299,62.6941 C101.0009,62.6941 101.1689,62.7171 101.3389,62.7301 C101.8509,62.7701 102.3539,62.8671 102.8389,63.0261 L102.8389,23.3591 L102.8389,18.9111 C102.8389,18.1151 102.5229,17.3521 101.9599,16.7901 L101.9599,16.7901 Z" id="Fill-3"></path>
            </g>
            <path d="M21.8965,44.0377 L80.6205,44.0377 C81.4495,44.0377 82.1205,43.3657 82.1205,42.5377 C82.1205,41.7097 81.4495,41.0377 80.6205,41.0377 L21.8965,41.0377 C21.0685,41.0377 20.3965,41.7097 20.3965,42.5377 C20.3965,43.3657 21.0685,44.0377 21.8965,44.0377" id="Fill-6" fill="#EC2978"></path>
            <path d="M21.8965,62.7223 L80.6205,62.7223 C81.4495,62.7223 82.1205,62.0503 82.1205,61.2223 C82.1205,60.3943 81.4495,59.7223 80.6205,59.7223 L21.8965,59.7223 C21.0685,59.7223 20.3965,60.3943 20.3965,61.2223 C20.3965,62.0503 21.0685,62.7223 21.8965,62.7223" id="Fill-8" fill="#EC2978"></path>
            <path d="M82.1201,79.9069 C82.1201,79.0789 81.4491,78.4069 80.6201,78.4069 L21.8961,78.4069 C21.0681,78.4069 20.3961,79.0789 20.3961,79.9069 C20.3961,80.7349 21.0681,81.4069 21.8961,81.4069 L80.6201,81.4069 C81.4491,81.4069 82.1201,80.7349 82.1201,79.9069" id="Fill-10" fill="#EC2978"></path>
            <g id="Group-14" transform="translate(63.000000, 62.735000)">
                <mask id="mask-2" fill="white">
                    <use xlink:href="#path-1"></use>
                </mask>
                <g id="Clip-13"></g>
                <path d="M46.6953,12.8154 L43.0373,18.5864 L39.8393,16.5604 L38.3393,15.6104 L36.8393,14.6604 L31.2113,11.0944 L34.8693,5.3224 C35.3323,4.5904 36.0343,4.0764 36.8393,3.8404 C37.1563,3.7484 37.4883,3.6944 37.8303,3.6944 C38.0013,3.6944 38.1713,3.7084 38.3393,3.7334 C38.8193,3.8044 39.2813,3.9754 39.6983,4.2394 L39.8393,4.3284 L45.6113,7.9844 C47.2413,9.0174 47.7273,11.1844 46.6953,12.8154 L46.6953,12.8154 Z M39.8393,23.6354 L38.3393,26.0034 L36.8393,28.3714 L20.8723,53.5724 L19.9223,55.0724 L18.9713,56.5724 L16.4573,60.5424 L10.1903,56.5724 L7.8223,55.0724 L5.4553,53.5724 L4.6313,53.0494 L29.6053,13.6294 L36.8393,18.2114 L38.3393,19.1624 L39.8393,20.1124 L41.4313,21.1224 L39.8393,23.6354 Z M3.4663,67.9654 L3.9353,56.5724 L4.5843,56.5724 L13.9243,62.4894 L3.4663,67.9654 Z M47.2163,5.4504 L41.3033,1.7054 C40.8433,1.4134 40.3493,1.1934 39.8393,1.0264 C39.3533,0.8674 38.8503,0.7704 38.3393,0.7304 C38.1693,0.7164 38.0013,0.6944 37.8303,0.6944 C37.4943,0.6944 37.1643,0.7274 36.8393,0.7774 C34.9933,1.0574 33.3533,2.1074 32.3343,3.7164 L27.8753,10.7564 L1.2933,52.7114 C1.2303,52.8124 1.1833,52.9204 1.1453,53.0304 C1.1343,53.0624 1.1283,53.0944 1.1193,53.1274 C1.0953,53.2134 1.0803,53.3014 1.0723,53.3914 C1.0713,53.4124 1.0623,53.4314 1.0623,53.4534 L1.0563,53.5724 L0.9953,55.0724 L0.9333,56.5724 L0.3633,70.4384 C0.3403,70.9734 0.6053,71.4804 1.0583,71.7674 C1.3023,71.9224 1.5823,72.0004 1.8613,72.0004 C2.0993,72.0004 2.3393,71.9434 2.5563,71.8294 L17.6173,63.9414 C17.6193,63.9404 17.6213,63.9374 17.6233,63.9364 C17.7383,63.8764 17.8433,63.7994 17.9413,63.7104 C17.9773,63.6764 18.0043,63.6334 18.0363,63.5964 C18.0883,63.5374 18.1443,63.4834 18.1873,63.4154 L22.5233,56.5724 L23.4733,55.0724 L24.4243,53.5724 L36.8393,33.9764 L38.3393,31.6094 L39.8393,29.2414 L44.7693,21.4604 L49.2283,14.4204 C51.1463,11.3924 50.2443,7.3694 47.2163,5.4504 L47.2163,5.4504 Z" id="Fill-12" fill="#EC2978" mask="url(#mask-2)"></path>
            </g>
            <path d="M94.8242,80.3346 C94.1242,79.8936 93.1972,80.0996 92.7542,80.7996 L72.0602,113.4626 C71.6172,114.1626 71.8262,115.0896 72.5252,115.5326 C72.7742,115.6896 73.0532,115.7656 73.3262,115.7656 C73.8242,115.7656 74.3092,115.5196 74.5952,115.0676 L95.2892,82.4046 C95.7322,81.7046 95.5232,80.7776 94.8242,80.3346" id="Fill-15" fill="#EC2978"></path>
            <path d="M99.8935,83.5475 C99.8755,83.5365 99.8575,83.5295 99.8385,83.5205 C99.1455,83.1165 98.2555,83.3275 97.8245,84.0115 L77.3615,116.3075 L77.1285,116.6735 C76.9075,117.0245 76.8485,117.4325 76.9335,117.8075 C77.0185,118.1805 77.2445,118.5225 77.5935,118.7425 C77.8425,118.9015 78.1215,118.9765 78.3945,118.9765 C78.8915,118.9765 79.3775,118.7305 79.6635,118.2785 L79.9625,117.8075 L80.9125,116.3075 L99.8385,86.4365 L100.3575,85.6165 C100.8005,84.9165 100.5935,83.9905 99.8935,83.5475" id="Fill-17" fill="#EC2978"></path>
        </g>
    </g>
</svg>