<svg width="136" height="142" viewBox="0 0 136 142" xmlns="http://www.w3.org/2000/svg" xmlns:xlink="http://www.w3.org/1999/xlink"><title>Page 1</title><defs><path id="a" d="M115.414.993H0v120.61h115.414V.994z"/><path id="c" d="M87.138 92.205V.817H.852v91.388h86.286z"/></defs><g fill="none" fill-rule="evenodd"><g transform="translate(0 -.993)"><mask id="b" fill="#fff"><use xlink:href="#a"/></mask><path d="M60.306.993C27.054.993 0 28.047 0 61.299c0 33.253 27.054 60.305 60.306 60.305a60.46 60.46 0 0 0 7.536-.488 1.307 1.307 0 0 1-.843-1.164c-.001-.012-.037-.436-.261-1.337a58.137 58.137 0 0 1-6.432.367c-31.807 0-57.684-25.876-57.684-57.683S28.499 3.615 60.306 3.615c22.142 0 41.397 12.546 51.063 30.897a43.571 43.571 0 0 1 4.045 2.338C106.014 15.749 84.857.993 60.306.993" fill="#9A9C9F" mask="url(#b)"/></g><path d="M60.306 14.064c-25.497 0-46.242 20.745-46.242 46.242 0 25.498 20.745 46.24 46.242 46.24.64 0 1.275-.022 1.909-.047-.411-.817-.86-1.68-1.345-2.588-.188.002-.375.014-.564.014-24.052 0-43.62-19.567-43.62-43.62 0-24.051 19.568-43.62 43.62-43.62 11.709 0 22.347 4.647 30.19 12.183.38-.016.762-.025 1.146-.03.046-.005.093-.014.142-.014.07 0 .14.005.212.006.07-.001.14-.006.212-.006.049 0 .096.009.143.015.619.008 1.237.022 1.85.056-8.451-9.113-20.516-14.831-33.895-14.831" fill="#9A9C9F"/><path d="M30.58 60.306c0 13.813 9.47 25.455 22.258 28.776a56.455 56.455 0 0 1-1.239-3.114c-10.686-3.636-18.398-13.762-18.398-25.662 0-14.945 12.16-27.105 27.105-27.105 3.4 0 6.652.635 9.654 1.784a43.174 43.174 0 0 1 2.928-1.602 29.526 29.526 0 0 0-12.582-2.804c-16.392 0-29.727 13.336-29.727 29.727" fill="#9A9C9F"/><g transform="translate(48 28.007)"><mask id="d" fill="#fff"><use xlink:href="#c"/></mask><path d="M77.074 67.186c-7.87 13.064-9.955 19.82-10.505 22.397H21.422c-.02-.095-.048-.208-.073-.315-.419-1.81-1.51-5.294-4.302-10.97a113.79 113.79 0 0 0-1.282-2.53 162.396 162.396 0 0 0-4.848-8.582 58.506 58.506 0 0 1-2.912-5.475 56.1 56.1 0 0 1-1.253-2.881c-2.355-5.883-3.278-11.12-3.278-14.656 0-15.482 8.682-28.971 21.431-35.862a41.273 41.273 0 0 1 2.86-1.394 40.459 40.459 0 0 1 16.23-3.473c.337 0 .671.015 1.005.025a40.433 40.433 0 0 1 20.344 6.167 40.95 40.95 0 0 1 3.875 2.754c9.316 7.472 15.297 18.939 15.297 31.783 0 5.15-1.955 13.902-7.442 23.012M67.414 7.85a43.45 43.45 0 0 0-4.046-2.34A43.04 43.04 0 0 0 46.2.889a43.588 43.588 0 0 0-1.85-.056c-.047-.006-.094-.015-.143-.015-.07 0-.14.005-.212.006-.07-.001-.14-.006-.21-.006-.05 0-.097.009-.144.015a43.04 43.04 0 0 0-18.753 4.544A43.186 43.186 0 0 0 21.96 6.98C9.327 14.563.852 28.395.852 44.174c0 1.825.267 6.91 2.747 13.787.36.999.78 2.043 1.24 3.114a61.312 61.312 0 0 0 3.831 7.464 165.182 165.182 0 0 1 4.2 7.365c.485.909.933 1.77 1.345 2.588 2.953 5.854 4.09 9.385 4.523 11.123.223.902.26 1.325.26 1.337.024.537.368.984.843 1.164.146.056.302.089.467.089h47.375c.69 0 1.263-.55 1.31-1.24.002-.058.504-6.122 10.328-22.426 7.253-12.044 7.817-21.695 7.817-24.365 0-15.194-7.862-28.58-19.725-36.323" fill="#EC2978" mask="url(#d)"/></g><path d="M113.244 124.12H69.522a1.311 1.311 0 0 0 0 2.622h43.722a1.311 1.311 0 0 0 0-2.622m-4.019 7.132H73.54a1.311 1.311 0 0 0 0 2.622h35.685a1.311 1.311 0 0 0 0-2.622m-4.016 7.133H77.556a1.311 1.311 0 0 0 0 2.622h27.653a1.311 1.311 0 0 0 0-2.622" fill="#EC2978"/></g></svg>