<svg width="49" height="39" viewBox="0 0 49 39" xmlns="http://www.w3.org/2000/svg" xmlns:xlink="http://www.w3.org/1999/xlink"><title>Page 1</title><defs><path id="a" d="M49.003 39V.717H0V39h49.003z"/></defs><g fill="none" fill-rule="evenodd"><g transform="translate(0 -.717)"><mask id="b" fill="#fff"><use xlink:href="#a"/></mask><path d="M28.42 35.592A2.41 2.41 0 0 1 26.012 38a2.41 2.41 0 0 1-2.408-2.408 2.408 2.408 0 0 1 1.962-2.363c.145-.028.293-.045.446-.045.816 0 1.536.41 1.972 1.033a2.437 2.437 0 0 1 .436 1.375m20.544-9.686a.501.501 0 0 0-.655-.265l-19.397 8.183a3.397 3.397 0 0 0-2.9-1.64c-.29 0-.567.047-.835.115L12.109 1.026a.488.488 0 0 0-.112-.164c-.011-.012-.027-.018-.04-.028a.547.547 0 0 0-.121-.08c-.031-.012-.067-.014-.102-.02-.03-.005-.056-.017-.087-.017H.5a.5.5 0 1 0 0 1h10.815l12.94 30.969a3.4 3.4 0 0 0-1.651 2.906A3.412 3.412 0 0 0 26.012 39a3.412 3.412 0 0 0 3.408-3.408 3.38 3.38 0 0 0-.12-.846l19.397-8.183a.503.503 0 0 0 .267-.657" fill="#939597" mask="url(#b)"/></g><path d="M27.334 3.941l3.869 9.36-8.793 3.632-3.869-9.355 8.793-3.637zM21.677 17.78a.5.5 0 0 0 .653.27l9.718-4.016a.496.496 0 0 0 .27-.653L28.067 3.097a.495.495 0 0 0-.653-.27l-9.718 4.016a.503.503 0 0 0-.27.655l4.251 10.281zm14.408-3.917l4.125 9.977-12.762 5.277-4.126-9.979 12.763-5.275zm-13.878 4.812a.498.498 0 0 0 0 .383l4.508 10.903a.498.498 0 0 0 .653.271l13.687-5.66a.498.498 0 0 0 .27-.652l-4.507-10.903a.496.496 0 0 0-.653-.269l-13.688 5.658a.498.498 0 0 0-.27.27z" fill="#939597"/></g></svg>