<svg width="55" height="36" viewBox="0 0 55 36" xmlns="http://www.w3.org/2000/svg"><title>Page 1</title><g stroke="#939597" fill="none" fill-rule="evenodd"><path d="M48.166 31.983a.605.605 0 0 1-.605.605H7.381a.606.606 0 0 1-.606-.605V1.105c0-.334.272-.605.606-.605h40.18c.334 0 .605.271.605.605v30.878z"/><path d="M45.628 29.58a.59.59 0 0 1-.59.59h-34.82a.592.592 0 0 1-.59-.59V3.672a.59.59 0 0 1 .59-.59h34.82a.59.59 0 0 1 .59.59V29.58zm8.872 4.701c0 .325-.265.59-.59.59H1.09a.591.591 0 0 1-.59-.59v-1.18a.59.59 0 0 1 .59-.59h52.82a.59.59 0 0 1 .59.59v1.18z"/><path d="M15.894 26.558V11.965c0-.75.607-1.357 1.357-1.357h2.942c.75 0 1.357.607 1.357 1.357v14.593m3.194 0V14.68c0-.75.608-1.357 1.358-1.357h2.942c.75 0 1.357.607 1.357 1.357v11.878m2.991 0V8.572c0-.75.607-1.358 1.357-1.358h2.942c.75 0 1.357.608 1.357 1.358v17.986" stroke-linecap="round" stroke-linejoin="round"/></g></svg>