<?xml version="1.0" encoding="UTF-8" standalone="no"?>
<svg width="49px" height="39px" viewBox="0 0 49 39" version="1.1" xmlns="http://www.w3.org/2000/svg" xmlns:xlink="http://www.w3.org/1999/xlink">
    <!-- Generator: Sketch 39 (31667) - http://www.bohemiancoding.com/sketch -->
    <title>Page 1</title>
    <desc>Created with Sketch.</desc>
    <defs>
        <polygon id="path-1" points="49.003 38.9998 49.003 0.717 0 0.717 0 38.9998 49.003 38.9998"></polygon>
    </defs>
    <g id="Page-1" stroke="none" stroke-width="1" fill="none" fill-rule="evenodd">
        <g transform="translate(0.000000, -1.000000)">
            <g id="Group-3" transform="translate(0.000000, 0.283200)">
                <mask id="mask-2" fill="white">
                    <use xlink:href="#path-1"></use>
                </mask>
                <g id="Clip-2"></g>
                <path d="M28.4199,35.5918 C28.4199,36.9198 27.3399,37.9998 26.0119,37.9998 C24.6839,37.9998 23.6039,36.9198 23.6039,35.5918 C23.6039,34.7718 24.0169,34.0488 24.6439,33.6128 C24.9159,33.4238 25.2289,33.2908 25.5659,33.2288 C25.7109,33.2008 25.8589,33.1838 26.0119,33.1838 C26.8279,33.1838 27.5479,33.5938 27.9839,34.2168 C28.1739,34.4878 28.3099,34.7988 28.3739,35.1368 C28.4019,35.2848 28.4199,35.4358 28.4199,35.5918 M48.9639,25.9058 C48.8559,25.6508 48.5609,25.5348 48.3089,25.6408 L28.9119,33.8238 C28.3129,32.8438 27.2419,32.1838 26.0119,32.1838 C25.7229,32.1838 25.4449,32.2308 25.1769,32.2988 L12.1089,1.0258 C12.0819,0.9628 12.0439,0.9058 11.9969,0.8618 C11.9859,0.8498 11.9699,0.8438 11.9579,0.8338 C11.9199,0.8028 11.8809,0.7738 11.8359,0.7538 C11.8049,0.7418 11.7689,0.7398 11.7339,0.7348 C11.7049,0.7288 11.6779,0.7168 11.6469,0.7168 L0.4999,0.7168 C0.2239,0.7168 -0.0001,0.9398 -0.0001,1.2168 C-0.0001,1.4918 0.2239,1.7168 0.4999,1.7168 L11.3149,1.7168 L24.2559,32.6858 C23.2709,33.2828 22.6039,34.3578 22.6039,35.5918 C22.6039,37.4708 24.1329,38.9998 26.0119,38.9998 C27.8909,38.9998 29.4199,37.4708 29.4199,35.5918 C29.4199,35.2988 29.3709,35.0178 29.3009,34.7458 L48.6969,26.5628 C48.9519,26.4548 49.0709,26.1598 48.9639,25.9058" id="Fill-1" fill="#939597" mask="url(#mask-2)"></path>
            </g>
            <path d="M27.334,4.9414 L31.203,14.3004 L22.41,17.9334 L18.541,8.5784 L27.334,4.9414 Z M21.677,18.7794 C21.756,18.9704 21.942,19.0874 22.139,19.0874 C22.202,19.0874 22.268,19.0764 22.33,19.0484 L32.048,15.0334 C32.17,14.9824 32.268,14.8864 32.318,14.7634 C32.369,14.6404 32.369,14.5044 32.318,14.3804 L28.067,4.0974 C28.017,3.9744 27.92,3.8774 27.797,3.8264 C27.675,3.7774 27.538,3.7754 27.414,3.8264 L17.696,7.8434 C17.574,7.8944 17.477,7.9924 17.426,8.1154 C17.375,8.2364 17.375,8.3754 17.426,8.4984 L21.677,18.7794 Z" id="Fill-4" fill="#939597"></path>
            <path d="M36.085,14.8633 L40.21,24.8403 L27.448,30.1173 L23.322,20.1383 L36.085,14.8633 Z M22.207,19.6753 C22.156,19.7993 22.156,19.9353 22.207,20.0583 L26.715,30.9613 C26.766,31.0843 26.862,31.1813 26.985,31.2323 C27.047,31.2583 27.111,31.2693 27.177,31.2693 C27.241,31.2693 27.307,31.2583 27.368,31.2323 L41.055,25.5723 C41.31,25.4673 41.431,25.1763 41.325,24.9203 L36.818,14.0173 C36.715,13.7633 36.422,13.6403 36.165,13.7483 L22.477,19.4063 C22.355,19.4573 22.258,19.5523 22.207,19.6753 L22.207,19.6753 Z" id="Fill-6" fill="#939597"></path>
        </g>
    </g>
</svg>