<svg id="Layer_1" data-name="Layer 1" xmlns="http://www.w3.org/2000/svg" viewBox="0 0 216.4 64.8"><defs><style>.cls-1{fill:#e91e6b;}</style></defs><title>logo-mine-horizontal</title><path class="cls-1" d="M185.1,483.8l-21.9-9.5-9-22.9,9-22.9L185,419l21.9,9.5,9,22.9-9,22.9Zm-19.8-11.7,19.8,8.6,19.7-8.6,8.2-20.7-8.2-20.7L185,422.1l-19.7,8.6-8.2,20.8Z" transform="translate(-154.2 -419)"/><path class="cls-1" d="M186.6,462H184l-6.4-17v17h-3.7V440.2h5.6l5.9,16,6-16h5.5V462h-3.6V445Z" transform="translate(-154.2 -419)"/><path class="cls-1" d="M253.7,458.5v-8.2a8.28,8.28,0,0,0-.5-3.5,2.09,2.09,0,0,0-2.1-1.1,4.37,4.37,0,0,0-3.2,1.8,21.75,21.75,0,0,1,.1,2.6v8.4h-4.4v-8.2a8.89,8.89,0,0,0-.4-3.6,2.17,2.17,0,0,0-2.1-1.1,4.7,4.7,0,0,0-3.1,1.6v11.2h-4.3V442.3h3.8l0.3,2a5.69,5.69,0,0,1,4.7-2.3,5.18,5.18,0,0,1,4.6,2.7,6.06,6.06,0,0,1,5.4-2.7,5.26,5.26,0,0,1,4.2,2.1c1.3,1.6,1.4,3.7,1.4,6.1v8.4l-4.4-.1h0Z" transform="translate(-154.2 -419)"/><path class="cls-1" d="M261.6,440.1v-3.7H266v3.7h-4.4Zm0,18.4V442.3H266v16.2h-4.4Z" transform="translate(-154.2 -419)"/><path class="cls-1" d="M273.3,442.3l0.3,2.2a6.11,6.11,0,0,1,5-2.6,5.45,5.45,0,0,1,4.3,2.1c1.3,1.6,1.4,3.7,1.4,6v8.4h-4.4v-8.1a8.28,8.28,0,0,0-.5-3.5,2.09,2.09,0,0,0-2.1-1.1,4,4,0,0,0-3.5,2.1v10.7h-4.4V442.3h3.9Z" transform="translate(-154.2 -419)"/><path class="cls-1" d="M291.2,451.5a4.15,4.15,0,0,0,4.1,3.9,4.59,4.59,0,0,0,4.2-2.4l2.9,1.9a8,8,0,0,1-7.4,4c-4.9,0-8.2-3.4-8.2-8.3a8.27,8.27,0,0,1,7.9-8.6H295a7.44,7.44,0,0,1,7.8,7.5,14.92,14.92,0,0,1-.2,2.1l-11.4-.1h0Zm7.1-3a3.12,3.12,0,0,0-3.1-3.1h0a3.75,3.75,0,0,0-3.7,3.1h6.8Z" transform="translate(-154.2 -419)"/><path class="cls-1" d="M313.4,446.2a4.82,4.82,0,0,0-3-1.1,2.18,2.18,0,0,0-2.3,1.8v0.2c0,1.2,1.5,1.8,3,2.3,2,0.8,4.5,1.9,4.5,4.6,0,3.4-2.7,4.8-5.6,4.8a6.49,6.49,0,0,1-5.3-2.4l2-1.6a4.42,4.42,0,0,0,3.4,1.6c1.5,0,2.8-.8,2.8-2.4,0-1.2-1.4-1.8-3-2.4-2-.8-4.4-1.7-4.4-4.5,0-3.1,2.4-4.6,5-4.6a7.33,7.33,0,0,1,4.7,1.7Z" transform="translate(-154.2 -419)"/><path class="cls-1" d="M322.1,445.6v8.2c0.1,1.6.6,2.6,2.1,2.6a4.71,4.71,0,0,0,1.7-.4l0.8,2.2a7.27,7.27,0,0,1-2.9.7,4,4,0,0,1-4.1-2.4,8.59,8.59,0,0,1-.5-3.2v-7.6h-2v-2.5h2.1v-3.7h2.8v3.7h4.3v2.5h-4.3v-0.1Z" transform="translate(-154.2 -419)"/><path class="cls-1" d="M343.5,450.8a8,8,0,0,1-7.6,8.1h-0.2a7.81,7.81,0,0,1-7.8-7.8v-0.2a7.83,7.83,0,0,1,7.7-8h0.2a7.81,7.81,0,0,1,7.8,7.8C343.5,450.7,343.5,450.7,343.5,450.8Zm-7.8-5.5a5.14,5.14,0,0,0-5,5.3v0.1a5.17,5.17,0,0,0,4.9,5.5h0.1a5.14,5.14,0,0,0,5-5.3v-0.1a5.32,5.32,0,0,0-5-5.5h0Z" transform="translate(-154.2 -419)"/><path class="cls-1" d="M349.6,445.7c0.9-1.7,2.3-2.9,4-2.9a9.85,9.85,0,0,1,1.7.2l-0.5,3a3.19,3.19,0,0,0-1.4-.3c-1.6,0-2.7.9-3.7,2.6v10.3h-2.8V443.1h2.8l-0.1,2.6h0Z" transform="translate(-154.2 -419)"/><path class="cls-1" d="M358.7,451.5a5,5,0,0,0,5,5,5,5,0,0,0,4.6-2.5l2,1.3a7.18,7.18,0,0,1-6.7,3.6c-4.9,0-7.6-3.6-7.6-8.1a7.59,7.59,0,0,1,7.4-8h0.2a6.91,6.91,0,0,1,7,6.8V450a8.6,8.6,0,0,1-.1,1.6l-11.8-.1h0Zm0.2-2.2h8.7a4.19,4.19,0,0,0-4.1-4.1C361,445.2,359.4,447,358.9,449.3Z" transform="translate(-154.2 -419)"/></svg>