<svg width="217" height="65" viewBox="0 0 217 65" xmlns="http://www.w3.org/2000/svg" xmlns:xlink="http://www.w3.org/1999/xlink"><title>Page 1</title><defs><path id="a" d="M0 65h216.404V.2H0z"/></defs><g fill="none" fill-rule="evenodd"><path d="M30.8 0L9 9.5 0 32.4l9 22.9 21.9 9.5 21.8-9.5 9-22.9-9-22.9L30.8 0zM11.1 53.1L2.9 32.5l8.2-20.8 19.7-8.6 19.8 8.6 8.2 20.7-8.2 20.7-19.7 8.6-19.8-8.6z" fill="#FFF"/><path fill="#FFF" d="M32.4 43h-2.6l-6.4-17v17h-3.7V21.2h5.6l5.9 16 6-16h5.5V43h-3.6V26z"/><g transform="translate(0 -.2)"><path d="M99.5 39.7v-8.2A8.28 8.28 0 0 0 99 28a2.09 2.09 0 0 0-2.1-1.1 4.37 4.37 0 0 0-3.2 1.8c.085.864.119 1.732.1 2.6v8.4h-4.4v-8.2a8.892 8.892 0 0 0-.4-3.6 2.17 2.17 0 0 0-2.1-1.1c-1.2.116-2.31.689-3.1 1.6v11.2h-4.3V23.5h3.8l.3 2a5.69 5.69 0 0 1 4.7-2.3 5.181 5.181 0 0 1 4.6 2.7 6.06 6.06 0 0 1 5.4-2.7 5.261 5.261 0 0 1 4.2 2.1c1.3 1.6 1.4 3.7 1.4 6.1v8.4l-4.4-.1z" fill="#FFF"/><mask id="b" fill="#fff"><use xlink:href="#a"/></mask><path d="M107.4 39.7h4.4V23.5h-4.4v16.2zm0-18.4h4.4v-3.7h-4.4v3.7zm11.7 2.2l.3 2.2a6.11 6.11 0 0 1 5-2.6c1.68 0 3.267.775 4.3 2.1 1.3 1.6 1.4 3.7 1.4 6v8.4h-4.4v-8.1a8.28 8.28 0 0 0-.5-3.5 2.09 2.09 0 0 0-2.1-1.1 4 4 0 0 0-3.5 2.1v10.7h-4.4V23.5h3.9zm25 6.2a3.12 3.12 0 0 0-3.1-3.1 3.75 3.75 0 0 0-3.7 3.1h6.8zm-7.1 3a4.15 4.15 0 0 0 4.1 3.9 4.59 4.59 0 0 0 4.2-2.4l2.9 1.9a8 8 0 0 1-7.4 4c-4.9 0-8.2-3.4-8.2-8.3a8.27 8.27 0 0 1 7.9-8.6h.3a7.44 7.44 0 0 1 7.8 7.5 14.926 14.926 0 0 1-.2 2.1l-11.4-.1zm22.2-5.3a4.822 4.822 0 0 0-3-1.1 2.18 2.18 0 0 0-2.3 1.8v.2c0 1.2 1.5 1.8 3 2.3 2 .8 4.5 1.9 4.5 4.6 0 3.4-2.7 4.8-5.6 4.8a6.492 6.492 0 0 1-5.3-2.4l2-1.6a4.421 4.421 0 0 0 3.4 1.6c1.5 0 2.8-.8 2.8-2.4 0-1.2-1.4-1.8-3-2.4-2-.8-4.4-1.7-4.4-4.5 0-3.1 2.4-4.6 5-4.6a7.332 7.332 0 0 1 4.7 1.7l-1.8 2zm8.7-.6V35c.1 1.6.6 2.6 2.1 2.6a4.708 4.708 0 0 0 1.7-.4l.8 2.2a7.268 7.268 0 0 1-2.9.7 4 4 0 0 1-4.1-2.4 8.585 8.585 0 0 1-.5-3.2v-7.6h-2v-2.5h2.1v-3.7h2.8v3.7h4.3v2.5h-4.3v-.1zm13.6-.3a5.14 5.14 0 0 0-5 5.3v.1a5.17 5.17 0 0 0 4.823 5.496l.077.004h.1a5.14 5.14 0 0 0 5.001-5.276l-.001-.024V32a5.32 5.32 0 0 0-5-5.5m7.8 5.5a8 8 0 0 1-7.6 8.1h-.2a7.81 7.81 0 0 1-7.8-7.8v-.2a7.83 7.83 0 0 1 7.657-7.999l.043-.001h.2a7.81 7.81 0 0 1 7.8 7.8c-.1 0-.1 0-.1.1m6.1-5.1c.9-1.7 2.3-2.9 4-2.9.571.017 1.14.084 1.7.2l-.5 3a3.194 3.194 0 0 0-1.4-.3c-1.6 0-2.7.9-3.7 2.6v10.3h-2.8V24.3h2.8l-.1 2.6zm9.3 3.6h8.7a4.19 4.19 0 0 0-4.1-4.1c-2.5 0-4.1 1.8-4.6 4.1zm-.2 2.2a5 5 0 0 0 5 5 5 5 0 0 0 4.6-2.5l2 1.3a7.178 7.178 0 0 1-6.7 3.6c-4.9 0-7.6-3.6-7.6-8.1a7.59 7.59 0 0 1 7.4-8h.2a6.91 6.91 0 0 1 7 6.8v.4a8.57 8.57 0 0 1-.1 1.6l-11.8-.1z" fill="#FFF" mask="url(#b)"/></g></g></svg>